 <svg  version="1.0" xmlns="http://www.w3.org/2000/svg"  width="256.000000pt" height="256.000000pt" viewBox="0 0 256.000000 256.000000"  preserveAspectRatio="xMidYMid meet">  <g transform="translate(0.000000,256.000000) scale(0.050000,-0.050000)" fill="#ff0d45" stroke="none"> <path d="M1418 5099 c-612 -63 -1146 -490 -1328 -1065 -50 -156 -101 -575 -85 -687 5 -31 10 0 12 69 2 70 10 122 19 116 21 -12 16 -1926 -4 -1947 -9 -8 -14 -6 -11 5 7 37 -1 117 -11 106 -25 -24 31 -457 78 -606 174 -549 736 -1015 1280 -1062 67 -5 156 -13 199 -17 46 -4 80 3 85 18 5 13 37 20 74 17 35 -4 100 -6 144 -5 199 4 270 1 288 -10 11 -6 24 -4 30 6 6 10 36 14 67 11 126 -16 938 -25 961 -10 14 8 64 10 111 2 46 -7 109 -6 139 2 36 10 50 8 41 -7 -9 -14 45 -18 175 -10 726 40 1355 663 1416 1404 8 100 10 186 3 191 -6 6 -9 64 -6 130 18 397 22 1715 6 1900 -59 693 -505 1231 -1175 1414 -172 47 -2123 74 -2508 35z m2405 -228 c494 -105 928 -533 1046 -1031 45 -193 45 -2367 0 -2560 -116 -490 -539 -913 -1029 -1029 -193 -45 -2367 -45 -2560 0 -490 116 -913 539 -1029 1029 -45 190 -45 2367 -1 2557 118 497 549 927 1038 1033 183 40 2348 41 2535 1z"/> <path d="M1773 4103 c-44 -48 -42 -77 25 -325 73 -269 88 -298 160 -298 135 0 143 58 53 370 -81 283 -147 353 -238 253z"/> <path d="M2837 3842 c-77 -28 -377 -338 -377 -389 0 -62 48 -113 106 -113 63 1 414 330 414 388 0 80 -75 140 -143 114z"/> <path d="M1009 3339 c-67 -74 -21 -142 131 -191 403 -132 500 -129 500 14 0 72 -29 87 -298 160 -254 68 -285 70 -333 17z"/> <path d="M2103 3079 c-138 -84 -139 -84 260 -1059 360 -883 382 -922 508 -926 126 -4 163 63 259 469 l82 347 346 81 c405 96 472 132 468 258 -4 126 -44 148 -906 501 -919 376 -932 380 -1017 329z m470 -347 c145 -61 464 -192 709 -291 245 -99 432 -184 416 -189 -15 -5 -152 -37 -303 -72 -381 -87 -417 -137 -507 -698 -17 -107 -31 -103 -74 18 -26 74 -460 1133 -549 1338 -8 20 -3 25 17 17 15 -6 147 -62 291 -123z"/> <path d="M1586 2625 c-318 -286 -397 -485 -194 -485 58 0 387 351 388 414 0 96 -118 139 -194 71z"/> <path d="M6 2870 c0 -66 4 -91 8 -55 5 36 5 90 0 120 -4 30 -8 1 -8 -65z"/> </g> </svg> 
